<?xml version="1.0" encoding="utf-8"?>
<!-- Generator: Adobe Illustrator 23.0.2, SVG Export Plug-In . SVG Version: 6.00 Build 0)  -->
<svg version="1.1" id="Capa_1" xmlns="http://www.w3.org/2000/svg" xmlns:xlink="http://www.w3.org/1999/xlink" x="0px" y="0px"
	 viewBox="0 0 127 52" style="enable-background:new 0 0 127 52;" xml:space="preserve">
<style type="text/css">
	.st0{fill:#00C686;}
	.st1{fill:#424962;}
</style>
<g>
	<g>
		<g>
			<path class="st0" d="M23.6,22.1c-0.8-2.4-2-4.3-3.8-5.7c-0.6-0.5-1.2-0.9-1.9-1.3c-0.3-0.2-0.7-0.4-1-0.5
				c-0.4-0.2-0.7-0.3-1.1-0.5c-2.7-1-5.4-1.2-8.2-0.7c-1.9,0.3-3.7,1-5.3,2.1c1.1,2.5,2.6,4.5,4.3,6c3,2.7,6.6,4.1,9.8,4.8
				c4,0.8,7.3,0.6,7.9,0.5C24.2,25.2,24.1,23.6,23.6,22.1z"/>
			<path class="st0" d="M16,29.9c-1.3,0.5-2.6,1.4-3.7,2.5c-1.4,1.5-2.4,3.5-2.8,6.4c0.4,0,0.8,0.1,1.2,0.1c3,0,5.2-0.5,7.2-1.6
				c3.3-1.8,5.4-4.9,6-8.4C23.2,28.8,19.5,28.4,16,29.9z"/>
		</g>
		<g>
			<path class="st1" d="M46.6,31.9h-7.3c-0.8,0-1.5-0.7-1.5-1.5V18.1c0-2.9-2.4-5.3-5.3-5.3h-2v23c0,1.7,1.4,3.1,3.1,3.1h12.9
				c1.8,0,3.4-1.3,3.6-3.1C50.3,33.7,48.7,31.9,46.6,31.9z"/>
			<path class="st1" d="M113,16.5c0-1.1-0.5-2.1-1.3-2.8s-1.9-1-2.9-0.9c-1.2,0.1-2.2,0.8-2.8,1.9l-7.4,12.5c0,0,0,0-0.1,0
				c0,0,0,0-0.1,0l-7.6-12.6c-0.7-1.1-1.9-1.8-3.2-1.8l0,0c-2.1,0-3.8,1.7-3.8,3.8v18.8c0,1.9,1.4,3.5,3.2,3.6c0.1,0,0.2,0,0.2,0
				c0.9,0,1.7-0.3,2.4-0.9c0.7-0.7,1.1-1.6,1.1-2.5v-8.7c0,0,0,0,0-0.1h0.1l4.9,8.1c0.9,1.4,2.7,1.9,4.2,1c0.4-0.3,0.8-0.7,1.1-1.1
				l4.9-8.3c0,0,0,0,0.1,0c0,0,0,0,0,0.1v9c0,1.9,1.6,3.4,3.5,3.4c0.9,0,1.8-0.4,2.4-1c0.7-0.7,1-1.5,1-2.4L113,16.5z"/>
			<path class="st1" d="M77.8,19.1c-1.2-2-3-3.7-5.1-4.8c-2.1-1.2-4.6-1.7-7.2-1.7c-2.7,0-5.1,0.6-7.3,1.7c-2.2,1.2-3.9,2.8-5.1,4.8
				c-0.3,0.4-0.5,0.9-0.7,1.3c-0.1,0.2-0.1,0.3-0.1,0.5c0,0.1,0.1,0.2,0.2,0.3c0.1,0.1,0.2,0,0.3,0c0.6-0.5,3.6-2.7,6.6,0.5
				c0.1,0.1,0.2,0.1,0.3,0.1s0.2-0.1,0.2-0.1c0.5-0.8,1.2-1.4,2-1.8c1-0.6,2.2-0.9,3.5-0.9s2.5,0.3,3.5,0.9s1.9,1.4,2.5,2.5
				s0.9,2.3,0.9,3.7s-0.3,2.6-0.9,3.7s-1.4,1.9-2.5,2.5c-1,0.6-2.2,0.9-3.5,0.9s-2.5-0.3-3.5-0.9c-0.6-0.4-1.2-0.8-1.7-1.3H61h0.1
				c0.5-0.2,0.9-0.6,1-1.1s0-0.9-0.3-1.4l-3.8-5c-0.6-0.7-1.3-1.1-2.1-1.1s-1.6,0.4-2.1,1.1l-3.4,4.8c-0.4,0.6-0.4,1.3,0,1.9
				c0.3,0.4,0.8,0.6,1.3,0.6h0.4c0.3,0.7,0.6,1.4,1,2.1c1.2,2,2.9,3.7,5.1,4.8c2.1,1.2,4.6,1.7,7.3,1.7c2.7,0,5.1-0.6,7.2-1.7
				c2.1-1.2,3.9-2.8,5.1-4.8s1.9-4.4,1.9-6.9S79.1,21.1,77.8,19.1L77.8,19.1z"/>
		</g>
	</g>
	<path class="st1" d="M121.2,12.8L121.2,12.8c1.9,0,3.5,1.6,3.5,3.5v19.1c0,1.9-1.6,3.5-3.5,3.5l0,0c-1.9,0-3.5-1.6-3.5-3.5V16.3
		C117.7,14.3,119.3,12.8,121.2,12.8z"/>
</g>
</svg>
